<svg width="80" height="48" viewBox="0 0 80 48" fill="none" xmlns="http://www.w3.org/2000/svg">
<path d="M0.22025 1.19049L9.73198 10.0667C10.4313 10.7193 10.826 11.6167 10.826 12.5542V46.6117C10.826 47.7187 12.108 48.3789 13.065 47.7649L26.5048 39.1424C27.5065 38.4997 28.1081 37.4179 28.1081 36.2594V2.07893C28.1081 0.930769 27.1409 -1.97038e-06 25.9478 0L0.721535 2.3009e-05C0.0746502 2.35991e-05 -0.244149 0.757118 0.22025 1.19049Z" fill="url(#paint0_linear_14429_1980)"/>
<path d="M73.103 17.4546C72.2656 17.4546 71.4356 17.3356 70.613 17.0977C69.7903 16.8598 69.0485 16.4732 68.3874 15.938C67.7264 15.4027 67.1975 14.6964 66.8009 13.8192C66.4043 12.9271 66.2059 11.8342 66.2059 10.5406V0.727295H70.4367V10.5406C70.4367 11.3435 70.6497 12.0275 71.0757 12.5925C71.5017 13.1575 72.1775 13.44 73.103 13.44C74.0285 13.44 74.7042 13.1575 75.1302 12.5925C75.5562 12.0275 75.7692 11.3435 75.7692 10.5406V0.727295H80V10.5406C80 11.8342 79.8017 12.9271 79.4051 13.8192C79.0084 14.6964 78.4796 15.4027 77.8185 15.938C77.1575 16.4732 76.4156 16.8598 75.593 17.0977C74.7703 17.3356 73.9403 17.4546 73.103 17.4546Z" fill="#182230"/>
<path d="M49.5557 17.2315V0.727295H56.2985C57.65 0.727295 58.8325 0.965194 59.8461 1.44099C60.8744 1.90192 61.7265 2.52641 62.4022 3.31445C63.0927 4.10249 63.6068 4.98717 63.9447 5.96851C64.2826 6.94984 64.4515 7.95348 64.4515 8.97942C64.4515 10.0054 64.2826 11.009 63.9447 11.9903C63.6068 12.9717 63.0927 13.8563 62.4022 14.6444C61.7265 15.4324 60.8744 16.0643 59.8461 16.5401C58.8325 17.0011 57.65 17.2315 56.2985 17.2315H49.5557ZM56.1001 4.4742H53.7864V13.4177H56.1001C57.055 13.4177 57.8336 13.2021 58.4359 12.7709C59.0382 12.3249 59.4789 11.7599 59.758 11.0759C60.0518 10.3919 60.1987 9.67825 60.1987 8.93481C60.1987 8.19138 60.0518 7.48511 59.758 6.81602C59.4789 6.13206 59.0382 5.57449 58.4359 5.14329C57.8336 4.69723 57.055 4.4742 56.1001 4.4742Z" fill="#182230"/>
<path d="M35.3153 17.2315V0.727295H47.1262V4.4296H39.5461V7.10596H46.1346V10.6298H39.5461V13.5292H47.2364V17.2315H35.3153Z" fill="#182230"/>
<path d="M68.3438 35.4164V19.1293H79.8923V22.7829H72.4805V25.424H78.9227V28.9015H72.4805V31.7628H80V35.4164H68.3438Z" fill="#182230"/>
<path d="M52.1896 35.4164V19.1293H56.0032L61.8851 28.1752V19.1293H65.9788V35.4164H62.1222L56.2833 26.8326V35.4164H52.1896Z" fill="#182230"/>
<path d="M42.169 35.6363C40.7901 35.6363 39.5835 35.4016 38.5493 34.932C37.5151 34.4478 36.6533 33.8095 35.9638 33.0172C35.2744 32.2102 34.7501 31.3078 34.391 30.31C34.0463 29.3122 33.8739 28.2925 33.8739 27.2507C33.8739 26.2089 34.0463 25.1965 34.391 24.2134C34.7501 23.2156 35.2744 22.3205 35.9638 21.5282C36.6533 20.7359 37.5151 20.1049 38.5493 19.6354C39.5835 19.1512 40.7901 18.9091 42.169 18.9091C43.5479 18.9091 44.7545 19.1512 45.7887 19.6354C46.8229 20.1049 47.6847 20.7359 48.3742 21.5282C49.078 22.3205 49.6023 23.2156 49.947 24.2134C50.2917 25.1965 50.4641 26.2089 50.4641 27.2507C50.4641 28.2925 50.2917 29.3122 49.947 30.31C49.6023 31.3078 49.078 32.2102 48.3742 33.0172C47.6847 33.8095 46.8229 34.4478 45.7887 34.932C44.7545 35.4016 43.5479 35.6363 42.169 35.6363ZM42.169 31.8727C43.0596 31.8727 43.7993 31.6526 44.3882 31.2124C44.9771 30.7575 45.4152 30.178 45.7025 29.4737C46.0041 28.7547 46.155 28.0137 46.155 27.2507C46.155 26.4877 46.0041 25.754 45.7025 25.0497C45.4152 24.3454 44.9771 23.7732 44.3882 23.333C43.7993 22.8781 43.0596 22.6507 42.169 22.6507C41.2928 22.6507 40.5603 22.8781 39.9713 23.333C39.3824 23.7732 38.9371 24.3454 38.6355 25.0497C38.3482 25.754 38.2046 26.4877 38.2046 27.2507C38.2046 28.0137 38.3482 28.7547 38.6355 29.4737C38.9371 30.178 39.3824 30.7575 39.9713 31.2124C40.5603 31.6526 41.2928 31.8727 42.169 31.8727Z" fill="#182230"/>
<defs>
<linearGradient id="paint0_linear_14429_1980" x1="0" y1="0" x2="0" y2="48" gradientUnits="userSpaceOnUse">
<stop stop-color="#7579FF"/>
<stop offset="1" stop-color="#B224EF"/>
</linearGradient>
</defs>
</svg>
